<svg xmlns="http://www.w3.org/2000/svg" viewBox="0 0 1200 600" width="1200" height="600" style="background:#0a0a0c">
<g stroke="#222" stroke-width="0.5" fill="none">
  <line x1="0" y1="0" x2="0" y2="600" />
  <line x1="100" y1="0" x2="100" y2="600" />
  <line x1="200" y1="0" x2="200" y2="600" />
  <line x1="300" y1="0" x2="300" y2="600" />
  <line x1="400" y1="0" x2="400" y2="600" />
  <line x1="500" y1="0" x2="500" y2="600" />
  <line x1="600" y1="0" x2="600" y2="600" />
  <line x1="700" y1="0" x2="700" y2="600" />
  <line x1="800" y1="0" x2="800" y2="600" />
  <line x1="900" y1="0" x2="900" y2="600" />
  <line x1="1000" y1="0" x2="1000" y2="600" />
  <line x1="1100" y1="0" x2="1100" y2="600" />
  <line x1="1200" y1="0" x2="1200" y2="600" />
  <line x1="0" y1="600" x2="1200" y2="600" />
  <line x1="0" y1="500" x2="1200" y2="500" />
  <line x1="0" y1="400" x2="1200" y2="400" />
  <line x1="0" y1="300" x2="1200" y2="300" />
  <line x1="0" y1="200" x2="1200" y2="200" />
  <line x1="0" y1="100" x2="1200" y2="100" />
  <line x1="0" y1="0" x2="1200" y2="0" />
</g>
<g stroke="rgba(255,255,255,0.18)" stroke-width="0.8" fill="none" stroke-linecap="round">
  <line x1="518.9" y1="306.4" x2="519.3" y2="306.2" />
  <line x1="519.6" y1="306.5" x2="519.3" y2="306.2" />
  <line x1="519.3" y1="306.2" x2="519.4" y2="305.8" />
  <line x1="888.6" y1="211.2" x2="888.6" y2="211.6" />
  <line x1="888.3" y1="211.9" x2="888.6" y2="211.6" />
  <line x1="888.6" y1="211.6" x2="889.1" y2="211.8" />
  <line x1="1132.7" y1="526.5" x2="1132.5" y2="526.9" />
  <line x1="1131.5" y1="527.0" x2="1132.5" y2="526.9" />
  <line x1="1132.5" y1="526.9" x2="1133.4" y2="527.1" />
  <line x1="145.6" y1="197.9" x2="146.0" y2="197.9" />
  <line x1="146.3" y1="198.3" x2="146.0" y2="197.9" />
  <line x1="146.0" y1="197.9" x2="146.3" y2="197.6" />
  <line x1="519.6" y1="306.5" x2="520.3" y2="307.1" />
  <line x1="519.4" y1="305.8" x2="519.6" y2="304.9" />
  <line x1="518.9" y1="306.4" x2="518.0" y2="306.7" />
  <line x1="888.3" y1="211.9" x2="887.5" y2="212.5" />
  <line x1="889.1" y1="211.8" x2="890.1" y2="212.1" />
  <line x1="888.6" y1="211.2" x2="888.4" y2="210.3" />
  <line x1="1131.5" y1="527.0" x2="1129.1" y2="527.4" />
  <line x1="1133.4" y1="527.1" x2="1135.4" y2="527.7" />
  <line x1="1132.7" y1="526.5" x2="1133.1" y2="525.6" />
  <line x1="146.3" y1="198.3" x2="146.8" y2="199.1" />
  <line x1="146.3" y1="197.6" x2="146.8" y2="196.7" />
  <line x1="145.6" y1="197.9" x2="144.5" y2="197.9" />
  <line x1="519.6" y1="304.9" x2="519.9" y2="303.3" />
  <line x1="518.0" y1="306.7" x2="516.4" y2="307.2" />
  <line x1="520.3" y1="307.1" x2="521.6" y2="308.2" />
  <line x1="890.1" y1="212.1" x2="891.8" y2="212.7" />
  <line x1="888.4" y1="210.3" x2="888.1" y2="208.6" />
  <line x1="887.5" y1="212.5" x2="886.1" y2="213.5" />
  <line x1="1135.4" y1="527.7" x2="1139.2" y2="528.7" />
  <line x1="1133.1" y1="525.6" x2="1133.6" y2="523.9" />
  <line x1="1129.1" y1="527.4" x2="1124.7" y2="528.0" />
  <line x1="146.8" y1="196.7" x2="147.8" y2="195.3" />
  <line x1="144.5" y1="197.9" x2="142.6" y2="198.0" />
  <line x1="146.8" y1="199.1" x2="147.8" y2="200.5" />
  <line x1="423.1" y1="346.8" x2="406.7" y2="355.7" />
  <line x1="544.7" y1="326.6" x2="530.8" y2="315.9" />
  <line x1="681.8" y1="369.1" x2="663.1" y2="372.1" />
  <line x1="531.8" y1="466.7" x2="516.9" y2="480.8" />
  <line x1="335.8" y1="457.7" x2="338.6" y2="475.9" />
  <line x1="544.7" y1="326.6" x2="559.2" y2="336.6" />
  <line x1="423.1" y1="346.8" x2="439.8" y2="338.9" />
  <line x1="689.2" y1="445.6" x2="665.1" y2="441.5" />
  <line x1="335.8" y1="457.7" x2="337.6" y2="439.4" />
  <line x1="516.9" y1="480.8" x2="502.2" y2="495.9" />
  <line x1="559.2" y1="336.6" x2="574.5" y2="345.8" />
  <line x1="439.8" y1="338.9" x2="456.2" y2="331.4" />
  <line x1="665.1" y1="441.5" x2="640.9" y2="439.0" />
  <line x1="337.6" y1="439.4" x2="343.3" y2="422.2" />
  <line x1="502.2" y1="495.9" x2="479.3" y2="508.7" />
  <line x1="574.5" y1="345.8" x2="590.6" y2="354.3" />
  <line x1="456.2" y1="331.4" x2="472.6" y2="324.3" />
  <line x1="640.9" y1="439.0" x2="616.7" y2="438.6" />
  <line x1="343.3" y1="422.2" x2="352.1" y2="406.1" />
  <line x1="479.3" y1="508.7" x2="444.8" y2="516.7" />
  <line x1="590.6" y1="354.3" x2="607.4" y2="362.0" />
  <line x1="472.6" y1="324.3" x2="488.8" y2="317.6" />
  <line x1="352.1" y1="406.1" x2="363.3" y2="391.6" />
  <line x1="444.8" y1="516.7" x2="404.4" y2="516.5" />
  <line x1="616.7" y1="438.6" x2="592.9" y2="440.7" />
  <line x1="488.8" y1="317.6" x2="505.1" y2="311.3" />
  <line x1="363.3" y1="391.6" x2="376.5" y2="378.2" />
  <line x1="404.4" y1="516.5" x2="370.7" y2="507.2" />
  <line x1="607.4" y1="362.0" x2="625.2" y2="368.1" />
  <line x1="592.9" y1="440.7" x2="569.8" y2="445.5" />
  <line x1="516.4" y1="307.2" x2="505.1" y2="311.3" />
  <line x1="376.5" y1="378.2" x2="391.1" y2="366.3" />
  <line x1="625.2" y1="368.1" x2="644.0" y2="371.6" />
  <line x1="370.7" y1="507.2" x2="349.1" y2="493.0" />
  <line x1="569.8" y1="445.5" x2="549.3" y2="454.3" />
  <line x1="521.6" y1="308.2" x2="530.8" y2="315.9" />
  <line x1="406.7" y1="355.7" x2="391.1" y2="366.3" />
  <line x1="663.1" y1="372.1" x2="644.0" y2="371.6" />
  <line x1="531.8" y1="466.7" x2="549.3" y2="454.3" />
  <line x1="338.6" y1="475.9" x2="349.1" y2="493.0" />
  <line x1="836.7" y1="115.8" x2="814.6" y2="102.3" />
  <line x1="877.6" y1="220.2" x2="865.1" y2="233.0" />
  <line x1="805.0" y1="340.5" x2="803.7" y2="358.3" />
  <line x1="712.2" y1="232.4" x2="694.9" y2="227.7" />
  <line x1="613.2" y1="135.9" x2="610.4" y2="154.0" />
  <line x1="865.1" y1="233.0" x2="853.5" y2="246.4" />
  <line x1="836.7" y1="115.8" x2="852.2" y2="131.0" />
  <line x1="726.6" y1="340.0" x2="736.5" y2="324.5" />
  <line x1="613.2" y1="135.9" x2="622.6" y2="118.8" />
  <line x1="694.9" y1="227.7" x2="677.1" y2="226.2" />
  <line x1="853.5" y1="246.4" x2="842.9" y2="260.5" />
  <line x1="852.2" y1="131.0" x2="863.8" y2="146.7" />
  <line x1="736.5" y1="324.5" x2="743.4" y2="307.6" />
  <line x1="622.6" y1="118.8" x2="640.0" y2="104.1" />
  <line x1="677.1" y1="226.2" x2="659.9" y2="222.8" />
  <line x1="842.9" y1="260.5" x2="833.0" y2="275.0" />
  <line x1="863.8" y1="146.7" x2="872.8" y2="162.7" />
  <line x1="743.4" y1="307.6" x2="746.3" y2="289.7" />
  <line x1="640.0" y1="104.1" x2="667.4" y2="92.9" />
  <line x1="659.9" y1="222.8" x2="643.5" y2="215.8" />
  <line x1="833.0" y1="275.0" x2="823.6" y2="290.2" />
  <line x1="872.8" y1="162.7" x2="879.8" y2="179.0" />
  <line x1="667.4" y1="92.9" x2="704.0" y2="86.8" />
  <line x1="643.5" y1="215.8" x2="629.7" y2="204.2" />
  <line x1="746.3" y1="289.7" x2="744.6" y2="271.8" />
  <line x1="879.8" y1="179.0" x2="885.4" y2="195.4" />
  <line x1="704.0" y1="86.8" x2="745.2" y2="86.5" />
  <line x1="629.7" y1="204.2" x2="619.5" y2="188.9" />
  <line x1="823.6" y1="290.2" x2="815.3" y2="306.1" />
  <line x1="744.6" y1="271.8" x2="738.7" y2="255.0" />
  <line x1="888.1" y1="208.6" x2="885.4" y2="195.4" />
  <line x1="745.2" y1="86.5" x2="783.5" y2="92.1" />
  <line x1="815.3" y1="306.1" x2="809.1" y2="323.0" />
  <line x1="619.5" y1="188.9" x2="612.7" y2="171.9" />
  <line x1="738.7" y1="255.0" x2="727.4" y2="241.6" />
  <line x1="886.1" y1="213.5" x2="877.6" y2="220.2" />
  <line x1="814.6" y1="102.3" x2="783.5" y2="92.1" />
  <line x1="805.0" y1="340.5" x2="809.1" y2="323.0" />
  <line x1="712.2" y1="232.4" x2="727.4" y2="241.6" />
  <line x1="610.4" y1="154.0" x2="612.7" y2="171.9" />
  <line x1="1043.5" y1="534.8" x2="1093.5" y2="532.0" />
  <line x1="1130.5" y1="427.0" x2="1127.0" y2="409.2" />
  <line x1="758.2" y1="467.8" x2="782.2" y2="478.1" />
  <line x1="949.4" y1="405.5" x2="953.3" y2="389.4" />
  <line x1="1028.5" y1="316.3" x2="1046.4" y2="319.4" />
  <line x1="1043.5" y1="534.8" x2="992.0" y2="533.7" />
  <line x1="1130.5" y1="427.0" x2="1132.8" y2="444.7" />
  <line x1="821.2" y1="408.2" x2="836.0" y2="421.6" />
  <line x1="1046.4" y1="319.4" x2="1063.6" y2="325.7" />
  <line x1="953.3" y1="389.4" x2="954.0" y2="373.1" />
  <line x1="992.0" y1="533.7" x2="943.9" y2="528.9" />
  <line x1="1132.8" y1="444.7" x2="1134.7" y2="462.1" />
  <line x1="836.0" y1="421.6" x2="855.1" y2="431.7" />
  <line x1="1063.6" y1="325.7" x2="1078.9" y2="334.7" />
  <line x1="954.0" y1="373.1" x2="957.4" y2="357.0" />
  <line x1="943.9" y1="528.9" x2="902.0" y2="521.1" />
  <line x1="1134.7" y1="462.1" x2="1136.1" y2="479.6" />
  <line x1="855.1" y1="431.7" x2="877.7" y2="437.2" />
  <line x1="1078.9" y1="334.7" x2="1092.5" y2="346.3" />
  <line x1="957.4" y1="357.0" x2="965.1" y2="342.1" />
  <line x1="902.0" y1="521.1" x2="866.7" y2="511.1" />
  <line x1="1136.1" y1="479.6" x2="1136.8" y2="496.9" />
  <line x1="1092.5" y1="346.3" x2="1104.1" y2="359.9" />
  <line x1="965.1" y1="342.1" x2="977.2" y2="329.8" />
  <line x1="877.7" y1="437.2" x2="901.5" y2="436.9" />
  <line x1="1136.8" y1="496.9" x2="1136.2" y2="514.2" />
  <line x1="1104.1" y1="359.9" x2="1113.7" y2="375.3" />
  <line x1="977.2" y1="329.8" x2="993.0" y2="321.6" />
  <line x1="866.7" y1="511.1" x2="835.9" y2="500.0" />
  <line x1="901.5" y1="436.9" x2="923.5" y2="431.3" />
  <line x1="1133.6" y1="523.9" x2="1136.2" y2="514.2" />
  <line x1="1113.7" y1="375.3" x2="1121.2" y2="391.9" />
  <line x1="835.9" y1="500.0" x2="807.8" y2="489.0" />
  <line x1="993.0" y1="321.6" x2="1010.4" y2="316.8" />
  <line x1="923.5" y1="431.3" x2="939.9" y2="420.1" />
  <line x1="1124.7" y1="528.0" x2="1093.5" y2="532.0" />
  <line x1="1127.0" y1="409.2" x2="1121.2" y2="391.9" />
  <line x1="782.2" y1="478.1" x2="807.8" y2="489.0" />
  <line x1="949.4" y1="405.5" x2="939.9" y2="420.1" />
  <line x1="1028.5" y1="316.3" x2="1010.4" y2="316.8" />
  <line x1="681.8" y1="369.1" x2="698.9" y2="362.5" />
  <line x1="726.6" y1="340.0" x2="714.1" y2="352.7" />
  <line x1="698.9" y1="362.5" x2="714.1" y2="352.7" />
  <line x1="758.2" y1="467.8" x2="735.4" y2="458.7" />
  <line x1="821.2" y1="408.2" x2="811.3" y2="392.8" />
  <line x1="803.7" y1="358.3" x2="805.6" y2="375.9" />
  <line x1="811.3" y1="392.8" x2="805.6" y2="375.9" />
  <line x1="689.2" y1="445.6" x2="712.5" y2="451.2" />
  <line x1="735.4" y1="458.7" x2="712.5" y2="451.2" />
  <line x1="165.5" y1="170.4" x2="154.9" y2="185.6" />
  <line x1="316.2" y1="47.1" x2="286.0" y2="62.8" />
  <line x1="165.5" y1="170.4" x2="176.9" y2="155.2" />
  <line x1="176.9" y1="155.2" x2="189.5" y2="139.9" />
  <line x1="189.5" y1="139.9" x2="204.0" y2="124.6" />
  <line x1="204.0" y1="124.6" x2="220.9" y2="109.5" />
  <line x1="220.9" y1="109.5" x2="240.2" y2="94.2" />
  <line x1="240.2" y1="94.2" x2="261.3" y2="78.5" />
  <line x1="147.8" y1="195.3" x2="154.9" y2="185.6" />
  <line x1="286.0" y1="62.8" x2="261.3" y2="78.5" />
  <line x1="993.8" y1="244.6" x2="1012.4" y2="248.9" />
  <line x1="1066.3" y1="102.5" x2="1096.4" y2="109.0" />
  <line x1="1147.4" y1="205.4" x2="1134.1" y2="219.1" />
  <line x1="993.8" y1="244.6" x2="975.8" y2="239.1" />
  <line x1="684.3" y1="11.5" x2="854.5" y2="23.2" />
  <line x1="1134.1" y1="219.1" x2="1119.3" y2="230.9" />
  <line x1="1096.4" y1="109.0" x2="1125.0" y2="115.3" />
  <line x1="975.8" y1="239.1" x2="958.0" y2="233.3" />
  <line x1="854.5" y1="23.2" x2="911.5" y2="39.2" />
  <line x1="1119.3" y1="230.9" x2="1103.5" y2="240.1" />
  <line x1="1125.0" y1="115.3" x2="1148.0" y2="125.4" />
  <line x1="958.0" y1="233.3" x2="940.2" y2="227.5" />
  <line x1="911.5" y1="39.2" x2="947.3" y2="55.1" />
  <line x1="1103.5" y1="240.1" x2="1086.5" y2="246.5" />
  <line x1="1148.0" y1="125.4" x2="1163.2" y2="139.3" />
  <line x1="940.2" y1="227.5" x2="922.5" y2="221.8" />
  <line x1="1086.5" y1="246.5" x2="1068.7" y2="250.2" />
  <line x1="1163.2" y1="139.3" x2="1168.7" y2="155.9" />
  <line x1="947.3" y1="55.1" x2="977.6" y2="70.1" />
  <line x1="922.5" y1="221.8" x2="904.5" y2="216.3" />
  <line x1="1068.7" y1="250.2" x2="1050.1" y2="251.7" />
  <line x1="1168.7" y1="155.9" x2="1165.8" y2="173.3" />
  <line x1="977.6" y1="70.1" x2="1005.7" y2="83.8" />
  <line x1="1050.1" y1="251.7" x2="1031.3" y2="251.2" />
  <line x1="1165.8" y1="173.3" x2="1158.4" y2="190.0" />
  <line x1="1005.7" y1="83.8" x2="1035.7" y2="94.4" />
  <line x1="1012.4" y1="248.9" x2="1031.3" y2="251.2" />
  <line x1="1066.3" y1="102.5" x2="1035.7" y2="94.4" />
  <line x1="1147.4" y1="205.4" x2="1158.4" y2="190.0" />
  <line x1="316.2" y1="47.1" x2="358.6" y2="31.7" />
  <line x1="684.3" y1="11.5" x2="442.6" y2="17.3" />
  <line x1="358.6" y1="31.7" x2="442.6" y2="17.3" />
  <line x1="370.3" y1="239.3" x2="360.0" y2="225.1" />
  <line x1="363.8" y1="122.0" x2="392.0" y2="114.1" />
  <line x1="519.9" y1="303.3" x2="521.5" y2="292.8" />
  <line x1="530.0" y1="222.6" x2="530.7" y2="204.4" />
  <line x1="314.6" y1="331.9" x2="331.7" y2="325.3" />
  <line x1="392.0" y1="114.1" x2="424.2" y2="111.4" />
  <line x1="530.0" y1="222.6" x2="528.7" y2="240.6" />
  <line x1="331.7" y1="325.3" x2="347.4" y2="316.0" />
  <line x1="424.2" y1="111.4" x2="455.5" y2="114.5" />
  <line x1="528.7" y1="240.6" x2="526.8" y2="258.3" />
  <line x1="347.4" y1="316.0" x2="360.7" y2="303.7" />
  <line x1="335.0" y1="199.0" x2="326.2" y2="183.5" />
  <line x1="326.2" y1="183.5" x2="323.4" y2="166.6" />
  <line x1="360.7" y1="303.7" x2="370.6" y2="288.9" />
  <line x1="515.4" y1="151.0" x2="501.4" y2="135.6" />
  <line x1="370.6" y1="288.9" x2="376.7" y2="272.6" />
  <line x1="204.3" y1="285.1" x2="216.4" y2="298.9" />
  <line x1="515.4" y1="151.0" x2="524.2" y2="168.1" />
  <line x1="376.7" y1="272.6" x2="376.4" y2="255.5" />
  <line x1="370.3" y1="239.3" x2="376.4" y2="255.5" />
  <line x1="363.8" y1="122.0" x2="342.4" y2="134.3" />
  <line x1="1172.1" y1="535.8" x2="1200.0" y2="537.9" />
  <line x1="0.0" y1="537.9" x2="24.0" y2="539.9" />
  <line x1="235.8" y1="442.5" x2="234.6" y2="460.5" />
  <line x1="24.0" y1="539.9" x2="79.0" y2="539.1" />
  <line x1="79.0" y1="539.1" x2="128.8" y2="533.2" />
  <line x1="128.8" y1="533.2" x2="168.3" y2="523.4" />
  <line x1="168.3" y1="523.4" x2="197.7" y2="510.6" />
  <line x1="197.7" y1="510.6" x2="217.5" y2="495.3" />
  <line x1="217.5" y1="495.3" x2="228.8" y2="478.2" />
  <line x1="234.6" y1="460.5" x2="228.8" y2="478.2" />
  <line x1="34.8" y1="225.2" x2="18.6" y2="234.7" />
  <line x1="109.1" y1="354.4" x2="96.0" y2="364.9" />
  <line x1="1178.5" y1="343.8" x2="1185.8" y2="360.7" />
  <line x1="34.8" y1="225.2" x2="52.3" y2="217.3" />
  <line x1="218.3" y1="392.4" x2="206.5" y2="377.8" />
  <line x1="1178.5" y1="343.8" x2="1174.5" y2="326.0" />
  <line x1="96.0" y1="364.9" x2="83.8" y2="377.0" />
  <line x1="52.3" y1="217.3" x2="70.4" y2="210.6" />
  <line x1="206.5" y1="377.8" x2="192.6" y2="365.1" />
  <line x1="1174.5" y1="326.0" x2="1174.1" y2="308.4" />
  <line x1="83.8" y1="377.0" x2="69.0" y2="387.1" />
  <line x1="70.4" y1="210.6" x2="89.3" y2="205.3" />
  <line x1="192.6" y1="365.1" x2="176.8" y2="355.1" />
  <line x1="1174.1" y1="308.4" x2="1177.0" y2="291.1" />
  <line x1="69.0" y1="387.1" x2="51.0" y2="392.9" />
  <line x1="204.3" y1="285.1" x2="193.7" y2="270.2" />
  <line x1="89.3" y1="205.3" x2="108.8" y2="201.4" />
  <line x1="1177.0" y1="291.1" x2="1183.1" y2="274.8" />
  <line x1="51.0" y1="392.9" x2="31.4" y2="393.0" />
  <line x1="176.8" y1="355.1" x2="159.6" y2="348.3" />
  <line x1="108.8" y1="201.4" x2="128.8" y2="199.2" />
  <line x1="1183.1" y1="274.8" x2="1192.3" y2="259.7" />
  <line x1="31.4" y1="393.0" x2="12.9" y2="386.4" />
  <line x1="159.6" y1="348.3" x2="141.7" y2="345.1" />
  <line x1="1192.3" y1="259.7" x2="1200.0" y2="253.0" />
  <line x1="0.0" y1="253.0" x2="4.3" y2="246.3" />
  <line x1="12.9" y1="386.4" x2="0.0" y2="380.9" />
  <line x1="1200.0" y1="380.9" x2="1197.3" y2="375.4" />
  <line x1="141.7" y1="345.1" x2="124.4" y2="347.2" />
  <line x1="18.6" y1="234.7" x2="4.3" y2="246.3" />
  <line x1="245.6" y1="321.5" x2="230.3" y2="311.3" />
  <line x1="109.1" y1="354.4" x2="124.4" y2="347.2" />
  <line x1="1185.8" y1="360.7" x2="1197.3" y2="375.4" />
  <line x1="218.3" y1="392.4" x2="227.4" y2="408.1" />
  <line x1="235.8" y1="442.5" x2="233.3" y2="424.9" />
  <line x1="227.4" y1="408.1" x2="233.3" y2="424.9" />
  <line x1="314.6" y1="331.9" x2="296.9" y2="334.8" />
  <line x1="296.9" y1="334.8" x2="279.2" y2="333.8" />
  <line x1="147.8" y1="200.5" x2="154.6" y2="210.1" />
  <line x1="142.6" y1="198.0" x2="128.8" y2="199.2" />
  <line x1="1139.2" y1="528.7" x2="1172.1" y2="535.8" />
  <line x1="891.8" y1="212.7" x2="904.5" y2="216.3" />
  <line x1="360.0" y1="225.1" x2="347.0" y2="212.6" />
  <line x1="335.0" y1="199.0" x2="347.0" y2="212.6" />
  <line x1="323.4" y1="166.6" x2="329.3" y2="149.5" />
  <line x1="342.4" y1="134.3" x2="329.3" y2="149.5" />
  <line x1="521.5" y1="292.8" x2="524.2" y2="274.9" />
  <line x1="193.7" y1="270.2" x2="183.6" y2="255.1" />
  <line x1="183.6" y1="255.1" x2="174.2" y2="240.1" />
  <line x1="174.2" y1="240.1" x2="164.1" y2="225.0" />
  <line x1="279.2" y1="333.8" x2="262.0" y2="328.8" />
  <line x1="154.6" y1="210.1" x2="164.1" y2="225.0" />
  <line x1="245.6" y1="321.5" x2="262.0" y2="328.8" />
  <line x1="216.4" y1="298.9" x2="230.3" y2="311.3" />
  <line x1="526.8" y1="258.3" x2="524.2" y2="274.9" />
  <line x1="530.7" y1="204.4" x2="529.3" y2="185.5" />
  <line x1="524.2" y1="168.1" x2="529.3" y2="185.5" />
  <line x1="501.4" y1="135.6" x2="481.8" y2="122.5" />
  <line x1="455.5" y1="114.5" x2="481.8" y2="122.5" />
</g>
<g stroke="#b5e853" stroke-width="1.5" fill="none" stroke-linecap="round" stroke-opacity="0.9">
  <line x1="574.5" y1="345.8" x2="607.4" y2="362.0" />
  <line x1="607.4" y1="362.0" x2="644.0" y2="371.6" />
  <line x1="644.0" y1="371.6" x2="681.8" y2="369.1" />
  <line x1="681.8" y1="369.1" x2="698.9" y2="362.5" />
  <line x1="698.9" y1="362.5" x2="714.1" y2="352.7" />
  <line x1="714.1" y1="352.7" x2="726.6" y2="340.0" />
  <line x1="726.6" y1="340.0" x2="736.5" y2="324.5" />
  <line x1="736.5" y1="324.5" x2="743.4" y2="307.6" />
  <line x1="743.4" y1="307.6" x2="746.3" y2="289.7" />
  <line x1="746.3" y1="289.7" x2="744.6" y2="271.8" />
  <line x1="744.6" y1="271.8" x2="738.7" y2="255.0" />
  <line x1="738.7" y1="255.0" x2="727.4" y2="241.6" />
  <line x1="727.4" y1="241.6" x2="712.2" y2="232.4" />
  <line x1="712.2" y1="232.4" x2="659.9" y2="222.8" />
  <line x1="659.9" y1="222.8" x2="643.5" y2="215.8" />
  <line x1="643.5" y1="215.8" x2="629.7" y2="204.2" />
  <line x1="629.7" y1="204.2" x2="619.5" y2="188.9" />
  <line x1="619.5" y1="188.9" x2="612.7" y2="171.9" />
  <line x1="612.7" y1="171.9" x2="610.4" y2="154.0" />
  <line x1="610.4" y1="154.0" x2="613.2" y2="135.9" />
  <line x1="613.2" y1="135.9" x2="622.6" y2="118.8" />
  <line x1="622.6" y1="118.8" x2="640.0" y2="104.1" />
  <line x1="640.0" y1="104.1" x2="667.4" y2="92.9" />
  <line x1="667.4" y1="92.9" x2="745.2" y2="86.5" />
  <line x1="745.2" y1="86.5" x2="814.6" y2="102.3" />
  <line x1="814.6" y1="102.3" x2="863.8" y2="146.7" />
  <line x1="863.8" y1="146.7" x2="888.6" y2="211.6" />
  <line x1="888.6" y1="211.6" x2="842.9" y2="260.5" />
  <line x1="842.9" y1="260.5" x2="815.3" y2="306.1" />
  <line x1="815.3" y1="306.1" x2="805.0" y2="340.5" />
  <line x1="805.0" y1="340.5" x2="805.6" y2="375.9" />
  <line x1="805.6" y1="375.9" x2="811.3" y2="392.8" />
  <line x1="811.3" y1="392.8" x2="821.2" y2="408.2" />
  <line x1="821.2" y1="408.2" x2="836.0" y2="421.6" />
  <line x1="836.0" y1="421.6" x2="855.1" y2="431.7" />
  <line x1="855.1" y1="431.7" x2="877.7" y2="437.2" />
  <line x1="877.7" y1="437.2" x2="901.5" y2="436.9" />
  <line x1="901.5" y1="436.9" x2="923.5" y2="431.3" />
  <line x1="923.5" y1="431.3" x2="939.9" y2="420.1" />
  <line x1="939.9" y1="420.1" x2="949.4" y2="405.5" />
  <line x1="949.4" y1="405.5" x2="957.4" y2="357.0" />
  <line x1="957.4" y1="357.0" x2="965.1" y2="342.1" />
  <line x1="965.1" y1="342.1" x2="977.2" y2="329.8" />
  <line x1="977.2" y1="329.8" x2="993.0" y2="321.6" />
  <line x1="993.0" y1="321.6" x2="1010.4" y2="316.8" />
  <line x1="1010.4" y1="316.8" x2="1028.5" y2="316.3" />
  <line x1="1028.5" y1="316.3" x2="1046.4" y2="319.4" />
  <line x1="1046.4" y1="319.4" x2="1063.6" y2="325.7" />
  <line x1="1063.6" y1="325.7" x2="1078.9" y2="334.7" />
  <line x1="1078.9" y1="334.7" x2="1092.5" y2="346.3" />
  <line x1="1092.5" y1="346.3" x2="1104.1" y2="359.9" />
  <line x1="1104.1" y1="359.9" x2="1121.2" y2="391.9" />
  <line x1="1121.2" y1="391.9" x2="1127.0" y2="409.2" />
  <line x1="1127.0" y1="409.2" x2="1132.8" y2="444.7" />
  <line x1="1132.8" y1="444.7" x2="1136.8" y2="496.9" />
  <line x1="1136.8" y1="496.9" x2="1132.5" y2="526.9" />
  <line x1="1132.5" y1="526.9" x2="902.0" y2="521.1" />
  <line x1="902.0" y1="521.1" x2="835.9" y2="500.0" />
  <line x1="835.9" y1="500.0" x2="807.8" y2="489.0" />
  <line x1="807.8" y1="489.0" x2="758.2" y2="467.8" />
  <line x1="758.2" y1="467.8" x2="735.4" y2="458.7" />
  <line x1="735.4" y1="458.7" x2="712.5" y2="451.2" />
  <line x1="712.5" y1="451.2" x2="665.1" y2="441.5" />
  <line x1="665.1" y1="441.5" x2="640.9" y2="439.0" />
  <line x1="640.9" y1="439.0" x2="616.7" y2="438.6" />
  <line x1="616.7" y1="438.6" x2="592.9" y2="440.7" />
  <line x1="592.9" y1="440.7" x2="569.8" y2="445.5" />
  <line x1="569.8" y1="445.5" x2="549.3" y2="454.3" />
  <line x1="549.3" y1="454.3" x2="531.8" y2="466.7" />
  <line x1="531.8" y1="466.7" x2="479.3" y2="508.7" />
  <line x1="479.3" y1="508.7" x2="444.8" y2="516.7" />
  <line x1="444.8" y1="516.7" x2="404.4" y2="516.5" />
  <line x1="404.4" y1="516.5" x2="370.7" y2="507.2" />
  <line x1="370.7" y1="507.2" x2="349.1" y2="493.0" />
  <line x1="349.1" y1="493.0" x2="338.6" y2="475.9" />
  <line x1="338.6" y1="475.9" x2="335.8" y2="457.7" />
  <line x1="335.8" y1="457.7" x2="337.6" y2="439.4" />
  <line x1="337.6" y1="439.4" x2="343.3" y2="422.2" />
  <line x1="343.3" y1="422.2" x2="352.1" y2="406.1" />
  <line x1="352.1" y1="406.1" x2="376.5" y2="378.2" />
  <line x1="376.5" y1="378.2" x2="406.7" y2="355.7" />
  <line x1="406.7" y1="355.7" x2="456.2" y2="331.4" />
  <line x1="456.2" y1="331.4" x2="519.3" y2="306.2" />
  <line x1="519.3" y1="306.2" x2="574.5" y2="345.8" />
  <line x1="128.8" y1="533.2" x2="217.5" y2="495.3" />
  <line x1="217.5" y1="495.3" x2="234.6" y2="460.5" />
  <line x1="234.6" y1="460.5" x2="233.3" y2="424.9" />
  <line x1="233.3" y1="424.9" x2="227.4" y2="408.1" />
  <line x1="227.4" y1="408.1" x2="218.3" y2="392.4" />
  <line x1="218.3" y1="392.4" x2="206.5" y2="377.8" />
  <line x1="206.5" y1="377.8" x2="192.6" y2="365.1" />
  <line x1="192.6" y1="365.1" x2="176.8" y2="355.1" />
  <line x1="176.8" y1="355.1" x2="159.6" y2="348.3" />
  <line x1="159.6" y1="348.3" x2="141.7" y2="345.1" />
  <line x1="141.7" y1="345.1" x2="124.4" y2="347.2" />
  <line x1="124.4" y1="347.2" x2="109.1" y2="354.4" />
  <line x1="109.1" y1="354.4" x2="69.0" y2="387.1" />
  <line x1="69.0" y1="387.1" x2="51.0" y2="392.9" />
  <line x1="51.0" y1="392.9" x2="31.4" y2="393.0" />
  <line x1="31.4" y1="393.0" x2="12.9" y2="386.4" />
  <line x1="12.9" y1="386.4" x2="0.0" y2="380.9" />
  <line x1="1200.0" y1="380.9" x2="1197.3" y2="375.4" />
  <line x1="1197.3" y1="375.4" x2="1185.8" y2="360.7" />
  <line x1="1185.8" y1="360.7" x2="1178.5" y2="343.8" />
  <line x1="1178.5" y1="343.8" x2="1174.5" y2="326.0" />
  <line x1="1174.5" y1="326.0" x2="1174.1" y2="308.4" />
  <line x1="1174.1" y1="308.4" x2="1177.0" y2="291.1" />
  <line x1="1177.0" y1="291.1" x2="1183.1" y2="274.8" />
  <line x1="1183.1" y1="274.8" x2="1200.0" y2="260.5" />
  <line x1="0.0" y1="260.5" x2="4.3" y2="246.3" />
  <line x1="4.3" y1="246.3" x2="18.6" y2="234.7" />
  <line x1="18.6" y1="234.7" x2="52.3" y2="217.3" />
  <line x1="52.3" y1="217.3" x2="89.3" y2="205.3" />
  <line x1="89.3" y1="205.3" x2="146.0" y2="197.9" />
  <line x1="146.0" y1="197.9" x2="183.6" y2="255.1" />
  <line x1="183.6" y1="255.1" x2="216.4" y2="298.9" />
  <line x1="216.4" y1="298.9" x2="245.6" y2="321.5" />
  <line x1="245.6" y1="321.5" x2="279.2" y2="333.8" />
  <line x1="279.2" y1="333.8" x2="296.9" y2="334.8" />
  <line x1="296.9" y1="334.8" x2="314.6" y2="331.9" />
  <line x1="314.6" y1="331.9" x2="331.7" y2="325.3" />
  <line x1="331.7" y1="325.3" x2="347.4" y2="316.0" />
  <line x1="347.4" y1="316.0" x2="360.7" y2="303.7" />
  <line x1="360.7" y1="303.7" x2="370.6" y2="288.9" />
  <line x1="370.6" y1="288.9" x2="376.7" y2="272.6" />
  <line x1="376.7" y1="272.6" x2="376.4" y2="255.5" />
  <line x1="376.4" y1="255.5" x2="370.3" y2="239.3" />
  <line x1="370.3" y1="239.3" x2="335.0" y2="199.0" />
  <line x1="335.0" y1="199.0" x2="326.2" y2="183.5" />
  <line x1="326.2" y1="183.5" x2="323.4" y2="166.6" />
  <line x1="323.4" y1="166.6" x2="329.3" y2="149.5" />
  <line x1="329.3" y1="149.5" x2="342.4" y2="134.3" />
  <line x1="342.4" y1="134.3" x2="363.8" y2="122.0" />
  <line x1="363.8" y1="122.0" x2="392.0" y2="114.1" />
  <line x1="392.0" y1="114.1" x2="424.2" y2="111.4" />
  <line x1="424.2" y1="111.4" x2="481.8" y2="122.5" />
  <line x1="481.8" y1="122.5" x2="515.4" y2="151.0" />
  <line x1="515.4" y1="151.0" x2="524.2" y2="168.1" />
  <line x1="524.2" y1="168.1" x2="529.3" y2="185.5" />
  <line x1="529.3" y1="185.5" x2="530.0" y2="222.6" />
  <line x1="530.0" y1="222.6" x2="519.3" y2="306.2" />
  <line x1="519.3" y1="306.2" x2="456.2" y2="331.4" />
  <line x1="456.2" y1="331.4" x2="406.7" y2="355.7" />
  <line x1="406.7" y1="355.7" x2="376.5" y2="378.2" />
  <line x1="376.5" y1="378.2" x2="352.1" y2="406.1" />
  <line x1="352.1" y1="406.1" x2="343.3" y2="422.2" />
  <line x1="343.3" y1="422.2" x2="337.6" y2="439.4" />
  <line x1="337.6" y1="439.4" x2="335.8" y2="457.7" />
  <line x1="335.8" y1="457.7" x2="338.6" y2="475.9" />
  <line x1="338.6" y1="475.9" x2="349.1" y2="493.0" />
  <line x1="349.1" y1="493.0" x2="370.7" y2="507.2" />
  <line x1="370.7" y1="507.2" x2="404.4" y2="516.5" />
  <line x1="404.4" y1="516.5" x2="444.8" y2="516.7" />
  <line x1="444.8" y1="516.7" x2="479.3" y2="508.7" />
  <line x1="479.3" y1="508.7" x2="531.8" y2="466.7" />
  <line x1="531.8" y1="466.7" x2="549.3" y2="454.3" />
  <line x1="549.3" y1="454.3" x2="569.8" y2="445.5" />
  <line x1="569.8" y1="445.5" x2="592.9" y2="440.7" />
  <line x1="592.9" y1="440.7" x2="616.7" y2="438.6" />
  <line x1="616.7" y1="438.6" x2="640.9" y2="439.0" />
  <line x1="640.9" y1="439.0" x2="665.1" y2="441.5" />
  <line x1="665.1" y1="441.5" x2="712.5" y2="451.2" />
  <line x1="712.5" y1="451.2" x2="735.4" y2="458.7" />
  <line x1="735.4" y1="458.7" x2="758.2" y2="467.8" />
  <line x1="758.2" y1="467.8" x2="807.8" y2="489.0" />
  <line x1="807.8" y1="489.0" x2="835.9" y2="500.0" />
  <line x1="835.9" y1="500.0" x2="902.0" y2="521.1" />
  <line x1="902.0" y1="521.1" x2="1132.5" y2="526.9" />
  <line x1="1132.5" y1="526.9" x2="1200.0" y2="530.0" />
  <line x1="0.0" y1="530.0" x2="128.8" y2="533.2" />
  <line x1="530.0" y1="222.6" x2="529.3" y2="185.5" />
  <line x1="529.3" y1="185.5" x2="524.2" y2="168.1" />
  <line x1="524.2" y1="168.1" x2="515.4" y2="151.0" />
  <line x1="515.4" y1="151.0" x2="481.8" y2="122.5" />
  <line x1="481.8" y1="122.5" x2="424.2" y2="111.4" />
  <line x1="424.2" y1="111.4" x2="392.0" y2="114.1" />
  <line x1="392.0" y1="114.1" x2="363.8" y2="122.0" />
  <line x1="363.8" y1="122.0" x2="342.4" y2="134.3" />
  <line x1="342.4" y1="134.3" x2="329.3" y2="149.5" />
  <line x1="329.3" y1="149.5" x2="323.4" y2="166.6" />
  <line x1="323.4" y1="166.6" x2="326.2" y2="183.5" />
  <line x1="326.2" y1="183.5" x2="335.0" y2="199.0" />
  <line x1="335.0" y1="199.0" x2="370.3" y2="239.3" />
  <line x1="370.3" y1="239.3" x2="376.4" y2="255.5" />
  <line x1="376.4" y1="255.5" x2="376.7" y2="272.6" />
  <line x1="376.7" y1="272.6" x2="370.6" y2="288.9" />
  <line x1="370.6" y1="288.9" x2="360.7" y2="303.7" />
  <line x1="360.7" y1="303.7" x2="347.4" y2="316.0" />
  <line x1="347.4" y1="316.0" x2="331.7" y2="325.3" />
  <line x1="331.7" y1="325.3" x2="314.6" y2="331.9" />
  <line x1="314.6" y1="331.9" x2="296.9" y2="334.8" />
  <line x1="296.9" y1="334.8" x2="279.2" y2="333.8" />
  <line x1="279.2" y1="333.8" x2="245.6" y2="321.5" />
  <line x1="245.6" y1="321.5" x2="216.4" y2="298.9" />
  <line x1="216.4" y1="298.9" x2="183.6" y2="255.1" />
  <line x1="183.6" y1="255.1" x2="146.0" y2="197.9" />
  <line x1="146.0" y1="197.9" x2="189.5" y2="139.9" />
  <line x1="189.5" y1="139.9" x2="240.2" y2="94.2" />
  <line x1="240.2" y1="94.2" x2="286.0" y2="62.8" />
  <line x1="286.0" y1="62.8" x2="358.6" y2="31.7" />
  <line x1="358.6" y1="31.7" x2="442.6" y2="17.3" />
  <line x1="442.6" y1="17.3" x2="684.3" y2="11.5" />
  <line x1="684.3" y1="11.5" x2="854.5" y2="23.2" />
  <line x1="854.5" y1="23.2" x2="911.5" y2="39.2" />
  <line x1="911.5" y1="39.2" x2="947.3" y2="55.1" />
  <line x1="947.3" y1="55.1" x2="977.6" y2="70.1" />
  <line x1="977.6" y1="70.1" x2="1005.7" y2="83.8" />
  <line x1="1005.7" y1="83.8" x2="1035.7" y2="94.4" />
  <line x1="1035.7" y1="94.4" x2="1066.3" y2="102.5" />
  <line x1="1066.3" y1="102.5" x2="1148.0" y2="125.4" />
  <line x1="1148.0" y1="125.4" x2="1163.2" y2="139.3" />
  <line x1="1163.2" y1="139.3" x2="1168.7" y2="155.9" />
  <line x1="1168.7" y1="155.9" x2="1165.8" y2="173.3" />
  <line x1="1165.8" y1="173.3" x2="1158.4" y2="190.0" />
  <line x1="1158.4" y1="190.0" x2="1147.4" y2="205.4" />
  <line x1="1147.4" y1="205.4" x2="1134.1" y2="219.1" />
  <line x1="1134.1" y1="219.1" x2="1103.5" y2="240.1" />
  <line x1="1103.5" y1="240.1" x2="1086.5" y2="246.5" />
  <line x1="1086.5" y1="246.5" x2="1068.7" y2="250.2" />
  <line x1="1068.7" y1="250.2" x2="1031.3" y2="251.2" />
  <line x1="1031.3" y1="251.2" x2="1012.4" y2="248.9" />
  <line x1="1012.4" y1="248.9" x2="975.8" y2="239.1" />
  <line x1="975.8" y1="239.1" x2="888.6" y2="211.6" />
  <line x1="888.6" y1="211.6" x2="863.8" y2="146.7" />
  <line x1="863.8" y1="146.7" x2="814.6" y2="102.3" />
  <line x1="814.6" y1="102.3" x2="745.2" y2="86.5" />
  <line x1="745.2" y1="86.5" x2="667.4" y2="92.9" />
  <line x1="667.4" y1="92.9" x2="640.0" y2="104.1" />
  <line x1="640.0" y1="104.1" x2="622.6" y2="118.8" />
  <line x1="622.6" y1="118.8" x2="613.2" y2="135.9" />
  <line x1="613.2" y1="135.9" x2="610.4" y2="154.0" />
  <line x1="610.4" y1="154.0" x2="612.7" y2="171.9" />
  <line x1="612.7" y1="171.9" x2="619.5" y2="188.9" />
  <line x1="619.5" y1="188.9" x2="629.7" y2="204.2" />
  <line x1="629.7" y1="204.2" x2="643.5" y2="215.8" />
  <line x1="643.5" y1="215.8" x2="659.9" y2="222.8" />
  <line x1="659.9" y1="222.8" x2="712.2" y2="232.4" />
  <line x1="712.2" y1="232.4" x2="727.4" y2="241.6" />
  <line x1="727.4" y1="241.6" x2="738.7" y2="255.0" />
  <line x1="738.7" y1="255.0" x2="744.6" y2="271.8" />
  <line x1="744.6" y1="271.8" x2="746.3" y2="289.7" />
  <line x1="746.3" y1="289.7" x2="743.4" y2="307.6" />
  <line x1="743.4" y1="307.6" x2="736.5" y2="324.5" />
  <line x1="736.5" y1="324.5" x2="726.6" y2="340.0" />
  <line x1="726.6" y1="340.0" x2="714.1" y2="352.7" />
  <line x1="714.1" y1="352.7" x2="698.9" y2="362.5" />
  <line x1="698.9" y1="362.5" x2="681.8" y2="369.1" />
  <line x1="681.8" y1="369.1" x2="644.0" y2="371.6" />
  <line x1="644.0" y1="371.6" x2="607.4" y2="362.0" />
  <line x1="607.4" y1="362.0" x2="574.5" y2="345.8" />
  <line x1="574.5" y1="345.8" x2="519.3" y2="306.2" />
  <line x1="519.3" y1="306.2" x2="530.0" y2="222.6" />
  <line x1="975.8" y1="239.1" x2="1012.4" y2="248.9" />
  <line x1="1012.4" y1="248.9" x2="1031.3" y2="251.2" />
  <line x1="1031.3" y1="251.2" x2="1068.7" y2="250.2" />
  <line x1="1068.7" y1="250.2" x2="1086.5" y2="246.5" />
  <line x1="1086.5" y1="246.5" x2="1103.5" y2="240.1" />
  <line x1="1103.5" y1="240.1" x2="1134.1" y2="219.1" />
  <line x1="1134.1" y1="219.1" x2="1147.4" y2="205.4" />
  <line x1="1147.4" y1="205.4" x2="1158.4" y2="190.0" />
  <line x1="1158.4" y1="190.0" x2="1165.8" y2="173.3" />
  <line x1="1165.8" y1="173.3" x2="1168.7" y2="155.9" />
  <line x1="1168.7" y1="155.9" x2="1163.2" y2="139.3" />
  <line x1="1163.2" y1="139.3" x2="1148.0" y2="125.4" />
  <line x1="1148.0" y1="125.4" x2="1066.3" y2="102.5" />
  <line x1="1066.3" y1="102.5" x2="1035.7" y2="94.4" />
  <line x1="1035.7" y1="94.4" x2="1005.7" y2="83.8" />
  <line x1="1005.7" y1="83.8" x2="977.6" y2="70.1" />
  <line x1="977.6" y1="70.1" x2="947.3" y2="55.1" />
  <line x1="947.3" y1="55.1" x2="911.5" y2="39.2" />
  <line x1="911.5" y1="39.2" x2="854.5" y2="23.2" />
  <line x1="854.5" y1="23.2" x2="684.3" y2="11.5" />
  <line x1="684.3" y1="11.5" x2="442.6" y2="17.3" />
  <line x1="442.6" y1="17.3" x2="358.6" y2="31.7" />
  <line x1="358.6" y1="31.7" x2="286.0" y2="62.8" />
  <line x1="286.0" y1="62.8" x2="240.2" y2="94.2" />
  <line x1="240.2" y1="94.2" x2="189.5" y2="139.9" />
  <line x1="189.5" y1="139.9" x2="146.0" y2="197.9" />
  <line x1="146.0" y1="197.9" x2="89.3" y2="205.3" />
  <line x1="89.3" y1="205.3" x2="52.3" y2="217.3" />
  <line x1="52.3" y1="217.3" x2="18.6" y2="234.7" />
  <line x1="18.6" y1="234.7" x2="4.3" y2="246.3" />
  <line x1="4.3" y1="246.3" x2="0.0" y2="260.5" />
  <line x1="1200.0" y1="260.5" x2="1183.1" y2="274.8" />
  <line x1="1183.1" y1="274.8" x2="1177.0" y2="291.1" />
  <line x1="1177.0" y1="291.1" x2="1174.1" y2="308.4" />
  <line x1="1174.1" y1="308.4" x2="1174.5" y2="326.0" />
  <line x1="1174.5" y1="326.0" x2="1178.5" y2="343.8" />
  <line x1="1178.5" y1="343.8" x2="1185.8" y2="360.7" />
  <line x1="1185.8" y1="360.7" x2="1197.3" y2="375.4" />
  <line x1="1197.3" y1="375.4" x2="1200.0" y2="380.9" />
  <line x1="0.0" y1="380.9" x2="12.9" y2="386.4" />
  <line x1="12.9" y1="386.4" x2="31.4" y2="393.0" />
  <line x1="31.4" y1="393.0" x2="51.0" y2="392.9" />
  <line x1="51.0" y1="392.9" x2="69.0" y2="387.1" />
  <line x1="69.0" y1="387.1" x2="109.1" y2="354.4" />
  <line x1="109.1" y1="354.4" x2="124.4" y2="347.2" />
  <line x1="124.4" y1="347.2" x2="141.7" y2="345.1" />
  <line x1="141.7" y1="345.1" x2="159.6" y2="348.3" />
  <line x1="159.6" y1="348.3" x2="176.8" y2="355.1" />
  <line x1="176.8" y1="355.1" x2="192.6" y2="365.1" />
  <line x1="192.6" y1="365.1" x2="206.5" y2="377.8" />
  <line x1="206.5" y1="377.8" x2="218.3" y2="392.4" />
  <line x1="218.3" y1="392.4" x2="227.4" y2="408.1" />
  <line x1="227.4" y1="408.1" x2="233.3" y2="424.9" />
  <line x1="233.3" y1="424.9" x2="234.6" y2="460.5" />
  <line x1="234.6" y1="460.5" x2="217.5" y2="495.3" />
  <line x1="217.5" y1="495.3" x2="128.8" y2="533.2" />
  <line x1="128.8" y1="533.2" x2="0.0" y2="530.0" />
  <line x1="1200.0" y1="530.0" x2="1132.5" y2="526.9" />
  <line x1="1132.5" y1="526.9" x2="1136.8" y2="496.9" />
  <line x1="1136.8" y1="496.9" x2="1132.8" y2="444.7" />
  <line x1="1132.8" y1="444.7" x2="1127.0" y2="409.2" />
  <line x1="1127.0" y1="409.2" x2="1121.2" y2="391.9" />
  <line x1="1121.2" y1="391.9" x2="1104.1" y2="359.9" />
  <line x1="1104.1" y1="359.9" x2="1092.5" y2="346.3" />
  <line x1="1092.5" y1="346.3" x2="1078.9" y2="334.7" />
  <line x1="1078.9" y1="334.7" x2="1063.6" y2="325.7" />
  <line x1="1063.6" y1="325.7" x2="1046.4" y2="319.4" />
  <line x1="1046.4" y1="319.4" x2="1028.5" y2="316.3" />
  <line x1="1028.5" y1="316.3" x2="1010.4" y2="316.8" />
  <line x1="1010.4" y1="316.8" x2="993.0" y2="321.6" />
  <line x1="993.0" y1="321.6" x2="977.2" y2="329.8" />
  <line x1="977.2" y1="329.8" x2="965.1" y2="342.1" />
  <line x1="965.1" y1="342.1" x2="957.4" y2="357.0" />
  <line x1="957.4" y1="357.0" x2="949.4" y2="405.5" />
  <line x1="949.4" y1="405.5" x2="939.9" y2="420.1" />
  <line x1="939.9" y1="420.1" x2="923.5" y2="431.3" />
  <line x1="923.5" y1="431.3" x2="901.5" y2="436.9" />
  <line x1="901.5" y1="436.9" x2="877.7" y2="437.2" />
  <line x1="877.7" y1="437.2" x2="855.1" y2="431.7" />
  <line x1="855.1" y1="431.7" x2="836.0" y2="421.6" />
  <line x1="836.0" y1="421.6" x2="821.2" y2="408.2" />
  <line x1="821.2" y1="408.2" x2="811.3" y2="392.8" />
  <line x1="811.3" y1="392.8" x2="805.6" y2="375.9" />
  <line x1="805.6" y1="375.9" x2="805.0" y2="340.5" />
  <line x1="805.0" y1="340.5" x2="815.3" y2="306.1" />
  <line x1="815.3" y1="306.1" x2="842.9" y2="260.5" />
  <line x1="842.9" y1="260.5" x2="888.6" y2="211.6" />
  <line x1="888.6" y1="211.6" x2="975.8" y2="239.1" />
</g>
<g fill="#ffb648">
  <circle cx="-24.2" cy="-1.9" r="3.5" />
  <circle cx="86.6" cy="26.5" r="3.5" />
  <circle cx="159.8" cy="-68.1" r="3.5" />
  <circle cx="-136.2" cy="30.6" r="3.5" />
</g>
<g fill="#b5e853" font-family="JetBrains Mono, monospace" font-size="9" text-anchor="middle">
  <text x="754.5" y="410.6">P1</text>
  <text x="278.9" y="391.4">P2</text>
  <text x="547.5" y="79.4">P3</text>
  <text x="1122.2" y="301.0">P4</text>
</g>
<g font-family="JetBrains Mono, monospace" font-size="10" fill="#bbb">
  <rect x="8" y="544" width="170" height="48" fill="#111" stroke="#333" />
  <line x1="16" y1="558" x2="40" y2="558" stroke="rgba(255,255,255,0.18)" stroke-width="0.8" />
  <text x="46" y="562">source seams</text>
  <line x1="16" y1="574" x2="40" y2="574" stroke="#b5e853" stroke-width="1.5" />
  <text x="46" y="578">extracted</text>
  <circle cx="28" cy="588" r="3.5" fill="#ffb648" />
  <text x="46" y="591">junctions</text>
</g>
</svg>